Coordinates
version=1
nRows=27
nColumns=38
inDegrees=no

Units are S.I. units (second, meters, Newtons, ...)
If the header above contains a line with 'inDegrees', this indicates whether rotational values are in degrees (yes) or radians (no).

endheader
time	pelvis_tilt	pelvis_list	pelvis_rotation	pelvis_tx	pelvis_ty	pelvis_tz	hip_flexion_r	hip_adduction_r	hip_rotation_r	knee_angle_r	ankle_angle_r	subtalar_angle_r	mtp_angle_r	hip_flexion_l	hip_adduction_l	hip_rotation_l	knee_angle_l	ankle_angle_l	subtalar_angle_l	mtp_angle_l	lumbar_extension	lumbar_bending	lumbar_rotation	arm_flex_r	arm_add_r	arm_rot_r	elbow_flex_r	pro_sup_r	wrist_flex_r	wrist_dev_r	arm_flex_l	arm_add_l	arm_rot_l	elbow_flex_l	pro_sup_l	wrist_flex_l	wrist_dev_l
1.37	1.80494	1.38652	-0.193777	0.824769	0.620454	0.99038	0.325684	0.112203	-0.543734	0.436243	0.0345018	0	0	-0.0642083	-0.281108	-0.144591	0.895384	-0.0909923	0	0	-0.214543	0.216709	0.0577499	-0.181545	-0.244991	0.160149	0.498733	1.08276	0	0	0.015196	-0.261185	0.640033	0.344137	0.994095	0	0
1.38	1.81754	1.37476	-0.194436	0.825867	0.63019	0.991941	0.305179	0.127298	-0.553283	0.423316	0.0383029	0	0	-0.0327119	-0.296457	-0.111005	0.947634	-0.133909	0	0	-0.218001	0.229913	0.0524091	-0.171401	-0.217877	0.0120531	0.461118	1.3014	0	0	0.0225754	-0.249942	0.613257	0.316642	1.09276	0	0
1.39	1.79877	1.3721	-0.175052	0.827377	0.63935	0.992657	0.29916	0.133129	-0.550818	0.425274	0.0468223	0	0	0.00384733	-0.301654	-0.0894506	0.997042	-0.176065	0	0	-0.213482	0.233555	0.0501153	-0.176395	-0.230469	0.0737938	0.477261	1.19584	0	0	0.0177062	-0.255422	0.64374	0.330398	1.04453	0	0
1.4	1.7834	1.3655	-0.157098	0.828899	0.648427	0.99368	0.287778	0.145767	-0.546827	0.415983	0.0514592	0	0	0.0398315	-0.310869	-0.066633	1.04352	-0.218324	0	0	-0.211129	0.241557	0.0487298	-0.172618	-0.224422	0.0317733	0.467924	1.26485	0	0	0.0169403	-0.249152	0.619979	0.324155	1.07687	0	0
1.41	1.78173	1.36109	-0.155857	0.83042	0.657224	0.994945	0.274373	0.155376	-0.54228	0.408602	0.0568341	0	0	0.0713535	-0.315205	-0.0465141	1.08797	-0.245625	0	0	-0.211965	0.246265	0.0491995	-0.1698	-0.228223	0.0469595	0.467055	1.24111	0	0	0.0157234	-0.247858	0.623586	0.326351	1.06777	0	0
1.42	1.78344	1.35751	-0.159618	0.831941	0.665803	0.996357	0.259163	0.165125	-0.535898	0.398502	0.061188	0	0	0.101204	-0.317514	-0.029062	1.13109	-0.253484	0	0	-0.214033	0.249726	0.051278	-0.165303	-0.232444	0.0658446	0.464117	1.21307	0	0	0.0151724	-0.246192	0.62753	0.328199	1.05773	0	0
1.43	1.78485	1.36043	-0.163105	0.83324	0.674337	0.997406	0.243546	0.170963	-0.518306	0.384234	0.0672351	0	0	0.130693	-0.310913	-0.0122744	1.17097	-0.243839	0	0	-0.213769	0.246352	0.0514373	-0.160712	-0.236524	0.0896265	0.460847	1.18085	0	0	0.0139173	-0.245872	0.631804	0.330883	1.04693	0	0
1.44	1.78141	1.35777	-0.165047	0.834972	0.682496	0.999006	0.231775	0.175899	-0.526163	0.381763	0.0709819	0	0	0.158523	-0.312161	-0.00133755	1.20532	-0.229185	0	0	-0.217424	0.248611	0.060848	-0.144898	-0.215977	-0.0441167	0.426543	1.40169	0	0	0.0213145	-0.229164	0.564642	0.305349	1.1437	0	0
1.45	1.7816	1.36426	-0.169264	0.836315	0.690671	0.999913	0.217886	0.177109	-0.509749	0.369842	0.0774486	0	0	0.186072	-0.300469	0.0109905	1.23605	-0.21039	0	0	-0.216869	0.241043	0.0630149	-0.138243	-0.216179	-0.0442406	0.418331	1.4066	0	0	0.0221511	-0.22773	0.56022	0.304365	1.14802	0	0
1.46	1.73931	1.36658	-0.13839	0.838087	0.698286	1.00031	0.214672	0.18238	-0.495578	0.363007	0.0812573	0	0	0.221335	-0.297079	0.0156097	1.26557	-0.193337	0	0	-0.20733	0.23908	0.0666554	-0.148957	-0.263562	0.214817	0.467713	1.05437	0	0	0.0130403	-0.242001	0.637931	0.337984	0.998962	0	0
1.47	1.79623	1.36642	-0.195007	0.839402	0.706371	1.00267	0.184533	0.186884	-0.496275	0.345381	0.0819289	0	0	0.23313	-0.29138	0.0274224	1.28277	-0.184118	0	0	-0.223838	0.235768	0.0745452	-0.124127	-0.219624	-0.0378197	0.404058	1.40062	0	0	0.025911	-0.231078	0.5969	0.314731	1.09819	0	0
1.48	1.84708	1.37462	-0.252099	0.841367	0.713517	1.00553	0.16123	0.182425	-0.487795	0.33387	0.0813503	0	0	0.249428	-0.279637	0.0297204	1.29703	-0.186357	0	0	-0.237951	0.221629	0.0804347	-0.113533	-0.218502	-0.031821	0.399004	1.39468	0	0	0.0325963	-0.233307	0.600894	0.31574	1.09234	0	0
1.49	1.79396	1.37128	-0.205809	0.84247	0.721662	1.00478	0.158658	0.191754	-0.484979	0.327905	0.0868139	0	0	0.281206	-0.279504	0.0417638	1.31161	-0.172312	0	0	-0.226576	0.228391	0.0873922	-0.117068	-0.225956	-0.0268961	0.405819	1.38991	0	0	0.0307728	-0.23001	0.605521	0.317462	1.0871	0	0
1.5	1.80706	1.37366	-0.226026	0.843998	0.729182	1.00595	0.142784	0.193584	-0.477057	0.318977	0.0888859	0	0	0.30011	-0.27409	0.045916	1.3186	-0.169125	0	0	-0.231439	0.223871	0.0943857	-0.113092	-0.228954	-0.0218735	0.407447	1.38592	0	0	0.0335742	-0.229619	0.609056	0.319118	1.0825	0	0
1.51	1.82443	1.37558	-0.249774	0.845441	0.736734	1.0071	0.126184	0.195179	-0.469732	0.310464	0.0910145	0	0	0.317208	-0.26915	0.0493607	1.32142	-0.167251	0	0	-0.236714	0.219733	0.100454	-0.108947	-0.231897	-0.0157338	0.408429	1.38208	0	0	0.0358233	-0.229505	0.612154	0.32125	1.0786	0	0
1.52	1.8428	1.37723	-0.273538	0.846781	0.744324	1.00818	0.109218	0.196783	-0.461608	0.301189	0.0925477	0	0	0.333213	-0.26415	0.0532008	1.32049	-0.164388	0	0	-0.241554	0.215999	0.105206	-0.104267	-0.234763	-0.00880752	0.408357	1.37777	0	0	0.0375861	-0.229111	0.613695	0.323268	1.07488	0	0
1.53	1.86321	1.37904	-0.298616	0.848045	0.751887	1.00923	0.0923274	0.197813	-0.45349	0.292296	0.0938792	0	0	0.348005	-0.258197	0.0573525	1.31558	-0.160368	0	0	-0.246373	0.211991	0.109092	-0.0989888	-0.237272	-0.00136573	0.407106	1.37291	0	0	0.0392502	-0.228575	0.614133	0.325429	1.07121	0	0
1.54	1.88376	1.38161	-0.323331	0.849236	0.75938	1.01018	0.0771575	0.196984	-0.447753	0.286371	0.0966856	0	0	0.362151	-0.25058	0.0622571	1.30724	-0.15479	0	0	-0.25073	0.20723	0.112415	-0.0937371	-0.239428	0.00545091	0.406005	1.36748	0	0	0.041008	-0.228062	0.614797	0.327432	1.06769	0	0
1.55	1.92015	1.38122	-0.363557	0.850564	0.766881	1.01152	0.0541895	0.200607	-0.433276	0.271002	0.0933728	0	0	0.370441	-0.246713	0.0645941	1.2941	-0.148363	0	0	-0.259656	0.204026	0.115671	-0.0841185	-0.237536	-0.0098734	0.396827	1.39685	0	0	0.0445945	-0.22262	0.589307	0.319972	1.09581	0	0
1.56	1.95157	1.38223	-0.398335	0.851756	0.774287	1.01261	0.035381	0.200987	-0.423733	0.261697	0.0939423	0	0	0.379495	-0.241853	0.0654466	1.27807	-0.141292	0	0	-0.266482	0.199636	0.117911	-0.0775701	-0.238428	-0.00674778	0.39451	1.39474	0	0	0.0470065	-0.221945	0.588398	0.3205	1.09265	0	0
1.57	1.98493	1.3834	-0.434771	0.852883	0.781637	1.01367	0.0168855	0.200512	-0.414653	0.252994	0.0944751	0	0	0.386884	-0.236263	0.0659076	1.25857	-0.131858	0	0	-0.273452	0.194823	0.119731	-0.0711598	-0.239312	-0.00326914	0.39272	1.39252	0	0	0.0498632	-0.221048	0.587652	0.320451	1.08897	0	0
1.58	2.01998	1.38457	-0.47277	0.853978	0.788937	1.0147	-0.0012007	0.199307	-0.405993	0.245221	0.0948718	0	0	0.392556	-0.230731	0.0650879	1.235	-0.121719	0	0	-0.280578	0.189643	0.121329	-0.0649691	-0.24012	0.000424612	0.391891	1.39002	0	0	0.0527899	-0.220715	0.587702	0.320915	1.08527	0	0
1.59	2.05717	1.38548	-0.512526	0.855072	0.796223	1.01567	-0.0196024	0.197942	-0.39751	0.237144	0.0953356	0	0	0.396432	-0.225707	0.0631625	1.20766	-0.109868	0	0	-0.287952	0.184217	0.122691	-0.0589996	-0.240607	0.00426787	0.391739	1.38702	0	0	0.0556577	-0.220783	0.587304	0.322036	1.08127	0	0
1.6	2.09391	1.3856	-0.55121	0.85611	0.803504	1.01656	-0.0380962	0.197057	-0.389856	0.229007	0.0960152	0	0	0.398654	-0.221912	0.0599584	1.17653	-0.0983032	0	0	-0.29543	0.179393	0.123791	-0.0531578	-0.241113	0.0088362	0.391901	1.38362	0	0	0.0585577	-0.220936	0.586842	0.323445	1.07672	0	0
1.61	2.12323	1.38532	-0.582242	0.857124	0.810792	1.01724	-0.0547539	0.196709	-0.383519	0.222352	0.0974179	0	0	0.400965	-0.219892	0.0559286	1.14384	-0.0869286	0	0	-0.301532	0.175687	0.124904	-0.0476207	-0.242015	0.0146202	0.391533	1.37955	0	0	0.0616331	-0.221002	0.587814	0.323995	1.07195	0	0
1.62	2.15127	1.38532	-0.612	0.858153	0.81805	1.0178	-0.070742	0.195866	-0.376892	0.216006	0.099495	0	0	0.401975	-0.218485	0.048552	1.10721	-0.0769756	0	0	-0.307294	0.171604	0.126057	-0.0418401	-0.242725	0.020958	0.390035	1.37449	0	0	0.0647923	-0.221301	0.589286	0.324408	1.06721	0	0
1.63	2.17384	1.38578	-0.635934	0.859102	0.825311	1.01817	-0.0845689	0.194529	-0.372354	0.21163	0.103967	0	0	0.402913	-0.217819	0.0383024	1.06714	-0.069033	0	0	-0.311734	0.167708	0.12686	-0.0361083	-0.243299	0.0274428	0.38803	1.36871	0	0	0.0679221	-0.221888	0.591852	0.324761	1.06264	0	0
